<?xml version="1.0" encoding="UTF-8" standalone="no"?>
<svg
   xmlns:dc="http://purl.org/dc/elements/1.1/"
   xmlns:cc="http://creativecommons.org/ns#"
   xmlns:rdf="http://www.w3.org/1999/02/22-rdf-syntax-ns#"
   xmlns:svg="http://www.w3.org/2000/svg"
   xmlns="http://www.w3.org/2000/svg"
   xmlns:sodipodi="http://sodipodi.sourceforge.net/DTD/sodipodi-0.dtd"
   xmlns:inkscape="http://www.inkscape.org/namespaces/inkscape"
   enable-background="new 0 0 24 24"
   height="160"
   viewBox="0 0 640 160"
   width="640"
   version="1.1"
   id="svg26"
   sodipodi:docname="app_header_logo2.svg"
   style="fill:#000000"
   inkscape:version="0.92.5 (2060ec1f9f, 2020-04-08)">
  <metadata
     id="metadata32">
    <rdf:RDF>
      <cc:Work
         rdf:about="">
        <dc:format>image/svg+xml</dc:format>
        <dc:type
           rdf:resource="http://purl.org/dc/dcmitype/StillImage" />
        <dc:title></dc:title>
      </cc:Work>
    </rdf:RDF>
  </metadata>
  <defs
     id="defs30" />
  <sodipodi:namedview
     pagecolor="#ffffff"
     bordercolor="#666666"
     borderopacity="1"
     objecttolerance="10"
     gridtolerance="10"
     guidetolerance="10"
     inkscape:pageopacity="0"
     inkscape:pageshadow="2"
     inkscape:window-width="1920"
     inkscape:window-height="1007"
     id="namedview28"
     showgrid="false"
     inkscape:zoom="2.1265625"
     inkscape:cx="237.70757"
     inkscape:cy="79.059515"
     inkscape:window-x="0"
     inkscape:window-y="0"
     inkscape:window-maximized="1"
     inkscape:current-layer="svg26" />
  <g
     aria-label="k-library"
     style="font-style:normal;font-weight:normal;font-size:40px;line-height:1.25;font-family:sans-serif;letter-spacing:0px;word-spacing:0px;fill:#404e4d;fill-opacity:1;stroke:none;stroke-width:1.5"
     id="text3727">
    <path
       d="m 218.69038,75.753327 q 2.52267,-2.752 5.16,-5.733333 2.752,-2.981333 5.27467,-5.848 2.52267,-2.981333 4.70133,-5.618666 2.29334,-2.637334 3.89867,-4.586667 h 20.296 q -6.07733,6.994666 -11.92533,13.416 -5.73334,6.306666 -12.61334,13.071999 3.44,3.096 7.10934,7.453334 3.66933,4.242666 7.10933,8.829333 3.44,4.586663 6.30667,9.173333 2.86666,4.58667 4.816,8.37067 h -19.608 q -1.83467,-2.98134 -4.24267,-6.536 -2.29333,-3.66934 -4.93067,-7.224 -2.63733,-3.669337 -5.61866,-6.99467 -2.86667,-3.325333 -5.73334,-5.618666 V 114.28133 H 201.60505 V 28.051995 l 17.08533,-2.752 z"
       style="font-style:normal;font-variant:normal;font-weight:bold;font-stretch:normal;font-size:114.66666412px;font-family:Ubuntu;-inkscape-font-specification:'Ubuntu Bold';fill:#404e4d;fill-opacity:1"
       id="path11" />
    <path
       d="m 257.79148,72.313327 h 33.25333 v 15.48 h -33.25333 z"
       style="font-style:normal;font-variant:normal;font-weight:bold;font-stretch:normal;font-size:114.66666412px;font-family:Ubuntu;-inkscape-font-specification:'Ubuntu Bold';fill:#404e4d;fill-opacity:1"
       id="path13" />
    <path
       d="m 318.79394,115.31333 q -3.784,-0.11467 -6.65066,-1.032 -2.752,-0.80267 -4.70134,-2.52267 -1.83466,-1.83467 -2.86666,-4.58667 -0.91734,-2.86666 -0.91734,-7.10933 V 26.675995 l 7.45334,-1.376 v 74.533332 q 0,2.752003 0.45866,4.472003 0.57334,1.60533 1.60534,2.63733 1.032,0.91733 2.63733,1.376 1.72,0.45867 4.01333,0.80267 z"
       style="font-style:normal;font-variant:normal;font-weight:300;font-stretch:normal;font-family:Ubuntu;-inkscape-font-specification:'Ubuntu Light';fill:#404e4d;fill-opacity:1"
       id="path15" />
    <path
       d="m 340.46585,114.28133 h -7.45333 V 54.998661 h 7.45333 z m 1.72,-77.170669 q 0,2.637334 -1.60533,4.242667 -1.60534,1.490667 -3.89867,1.490667 -2.29333,0 -3.89867,-1.490667 -1.60533,-1.605333 -1.60533,-4.242667 0,-2.637333 1.60533,-4.128 1.60534,-1.605333 3.89867,-1.605333 2.29333,0 3.89867,1.605333 1.60533,1.490667 1.60533,4.128 z"
       style="font-style:normal;font-variant:normal;font-weight:300;font-stretch:normal;font-family:Ubuntu;-inkscape-font-specification:'Ubuntu Light';fill:#404e4d;fill-opacity:1"
       id="path17" />
    <path
       d="m 367.64178,58.553328 q 1.94934,-1.490667 6.192,-3.096 4.35734,-1.72 10.20534,-1.72 6.42133,0 11.352,2.293333 5.04533,2.293333 8.48533,6.421333 3.44,4.128 5.16,9.861333 1.83467,5.618667 1.83467,12.384 0,7.224 -2.17867,12.957333 -2.064,5.73333 -5.96267,9.74667 -3.784,4.01333 -9.17333,6.192 -5.27467,2.064 -11.81067,2.064 -7.912,0 -13.072,-1.032 -5.16,-1.032 -8.48533,-2.17867 V 26.675995 l 7.45333,-1.376 z m 0,48.733332 q 1.72,0.57333 5.04534,1.14667 3.44,0.45866 8.944,0.45866 9.632,0 15.48,-6.192 5.848,-6.306663 5.848,-18.002663 0,-4.930667 -1.032,-9.288 -1.032,-4.472 -3.32534,-7.682666 -2.29333,-3.325334 -6.07733,-5.274667 -3.66933,-1.949333 -9.17333,-1.949333 -2.63734,0 -5.04534,0.573333 -2.408,0.458667 -4.472,1.261333 -2.064,0.802667 -3.66933,1.72 -1.49067,0.917334 -2.52267,1.72 z"
       style="font-style:normal;font-variant:normal;font-weight:300;font-stretch:normal;font-family:Ubuntu;-inkscape-font-specification:'Ubuntu Light';fill:#404e4d;fill-opacity:1"
       id="path19" />
    <path
       d="m 447.22025,53.851994 q 3.66933,0 6.88,0.573334 3.32533,0.573333 4.58666,1.146666 l -1.49066,6.421333 q -0.91734,-0.458666 -3.784,-0.917333 -2.752,-0.573333 -7.33867,-0.573333 -4.816,0 -7.79733,0.688 -2.86667,0.688 -3.784,1.146666 v 51.944003 h -7.45334 V 57.750661 q 2.86667,-1.261333 7.912,-2.522667 5.04534,-1.376 12.26934,-1.376 z"
       style="font-style:normal;font-variant:normal;font-weight:300;font-stretch:normal;font-family:Ubuntu;-inkscape-font-specification:'Ubuntu Light';fill:#404e4d;fill-opacity:1"
       id="path21" />
    <path
       d="m 488.61476,108.89199 q 4.35733,0 7.568,-0.22933 3.32533,-0.344 5.61867,-0.80267 V 86.99066 q -1.26134,-0.573333 -4.01334,-1.146666 -2.752,-0.688 -7.568,-0.688 -2.752,0 -5.73333,0.458666 -2.98133,0.344 -5.504,1.72 -2.52267,1.261334 -4.128,3.554667 -1.60533,2.293333 -1.60533,6.077333 0,3.32533 1.032,5.61867 1.14666,2.29333 3.096,3.66933 2.064,1.376 4.816,2.064 2.86666,0.57333 6.42133,0.57333 z m -0.688,-55.269329 q 5.848,0 9.86133,1.72 4.128,1.605333 6.65067,4.586666 2.52267,2.866667 3.66933,6.88 1.14667,4.013334 1.14667,8.714667 v 37.381336 q -1.14667,0.344 -3.32533,0.80266 -2.17867,0.344 -5.04534,0.80267 -2.86666,0.45867 -6.42133,0.688 -3.44,0.344 -7.10933,0.344 -4.70134,0 -8.71467,-1.032 -3.89867,-1.032 -6.88,-3.21067 -2.86667,-2.29333 -4.58667,-5.73333 -1.60533,-3.55467 -1.60533,-8.6 0,-4.816 1.83467,-8.256 1.83466,-3.44 5.16,-5.618666 3.32533,-2.293334 7.912,-3.325334 4.58666,-1.032 9.976,-1.032 1.60533,0 3.32533,0.229334 1.83467,0.114666 3.44,0.458666 1.72,0.229334 2.86667,0.573334 1.26133,0.229333 1.72,0.458666 v -3.669333 q 0,-3.096 -0.45867,-5.962666 -0.45867,-2.981334 -2.064,-5.274667 -1.49067,-2.408 -4.35733,-3.784 -2.752,-1.490667 -7.33867,-1.490667 -6.536,0 -9.74667,0.917334 -3.21066,0.917333 -4.70133,1.490666 l -1.032,-6.535999 q 1.94933,-0.917334 5.96267,-1.72 4.128,-0.802667 9.86133,-0.802667 z"
       style="font-style:normal;font-variant:normal;font-weight:300;font-stretch:normal;font-family:Ubuntu;-inkscape-font-specification:'Ubuntu Light';fill:#404e4d;fill-opacity:1"
       id="path23" />
    <path
       d="m 548.47063,53.851994 q 3.66933,0 6.88,0.573334 3.32533,0.573333 4.58667,1.146666 l -1.49067,6.421333 q -0.91733,-0.458666 -3.784,-0.917333 -2.752,-0.573333 -7.33867,-0.573333 -4.816,0 -7.79733,0.688 -2.86667,0.688 -3.784,1.146666 V 114.28133 H 528.2893 V 57.750661 q 2.86666,-1.261333 7.912,-2.522667 5.04533,-1.376 12.26933,-1.376 z"
       style="font-style:normal;font-variant:normal;font-weight:300;font-stretch:normal;font-family:Ubuntu;-inkscape-font-specification:'Ubuntu Light';fill:#404e4d;fill-opacity:1"
       id="path25" />
    <path
       d="m 589.75048,115.54266 q -3.784,-6.99467 -7.33867,-14.56267 -3.44,-7.567997 -6.536,-15.250663 -2.98133,-7.797333 -5.504,-15.48 -2.52266,-7.797333 -4.35733,-15.250666 h 7.912 q 1.26133,5.504 3.21067,11.925333 1.94933,6.306667 4.35733,13.072 2.52267,6.765333 5.504,13.874666 2.98133,7.10933 6.42133,13.98933 2.52267,-7.10933 4.472,-13.415997 1.94933,-6.306666 3.55467,-12.498666 1.72,-6.306667 3.21066,-12.842666 1.60534,-6.536 3.32534,-14.104 h 7.45333 q -3.66933,16.626666 -8.37067,32.335999 -4.70133,15.70933 -10.20533,28.78133 -2.17867,5.16 -4.472,8.82934 -2.29333,3.784 -5.16,6.192 -2.752,2.408 -6.536,3.55466 -3.66933,1.14667 -8.71466,1.14667 -2.86667,0 -5.27467,-0.688 -2.29333,-0.688 -2.86667,-1.032 l 1.49067,-6.192 q 0.45867,0.344 2.52267,0.91733 2.17866,0.688 4.472,0.688 3.21066,0 5.73333,-0.688 2.63733,-0.688 4.70133,-2.408 2.064,-1.60533 3.66934,-4.24266 1.72,-2.63734 3.32533,-6.65067 z"
       style="font-style:normal;font-variant:normal;font-weight:300;font-stretch:normal;font-family:Ubuntu;-inkscape-font-specification:'Ubuntu Light';fill:#404e4d;fill-opacity:1"
       id="path27" />
  </g>
  <path
     style="font-style:normal;font-weight:normal;font-size:60px;line-height:1.25;font-family:sans-serif;letter-spacing:0px;word-spacing:0px;fill:#404e4d;fill-opacity:1;stroke:none;stroke-width:10.71017933"
     id="path3781-3"
     d="m 121.81327,25.471885 c -0.57121,0 -1.14242,-0.142804 -1.64223,-0.428411 -13.70902,-7.068713 -25.561624,-10.067569 -39.770461,-10.067569 -14.137443,0 -27.560861,3.355856 -39.770474,10.067569 -1.713625,0.928214 -3.855661,0.285607 -4.855285,-1.428026 -0.928198,-1.713625 -0.285599,-3.927062 1.428026,-4.855277 13.280631,-7.211526 27.846469,-10.9243832 43.197733,-10.9243832 15.208453,0 28.489081,3.3558562 43.054921,10.8529822 1.78503,0.928214 2.42764,3.070249 1.49943,4.783883 -0.64262,1.285214 -1.85644,1.999232 -3.14166,1.999232 z M 19.638161,62.957512 c -0.714017,0 -1.428026,-0.214206 -2.070641,-0.642616 -1.642224,-1.142419 -1.999232,-3.355856 -0.856813,-4.99808 7.068722,-9.996167 16.065282,-17.8503 26.77545,-23.348192 22.41997,-11.566989 51.123259,-11.638391 73.614633,-0.07138 10.71018,5.497892 19.70674,13.280623 26.77545,23.205389 1.14242,1.57083 0.78541,3.855669 -0.85682,4.998088 -1.64223,1.142419 -3.85566,0.785411 -4.99808,-0.856821 C 131.59524,52.247351 123.4555,45.178638 113.81633,40.251952 93.324193,29.75598 67.119948,29.75598 46.69921,40.323329 36.988641,45.321417 28.848918,52.461532 22.422804,61.458084 21.851599,62.4577 20.780581,62.957512 19.638161,62.957512 Z m 95.820399,72.972018 c -8.49674,0 -15.99386,-2.14203 -22.134367,-6.3547 -10.638775,-7.21153 -16.99348,-18.92132 -16.99348,-31.34512 0,-1.999232 1.570822,-3.570062 3.570062,-3.570062 1.999232,0 3.570062,1.57083 3.570062,3.570062 0,10.06756 5.140875,19.56392 13.85182,25.41882 5.069493,3.42726 10.995793,5.06948 18.135903,5.06948 1.71363,0 4.56968,-0.2142 7.42573,-0.71401 1.92783,-0.35701 3.78426,0.92821 4.14127,2.92745 0.35701,1.92783 -0.92821,3.78426 -2.92745,4.14127 -4.06987,0.78541 -7.63993,0.85681 -8.63955,0.85681 z m -14.35164,14.70864 c -0.2856,0 -0.6426,-0.0714 -0.92821,-0.1428 -11.352793,-3.14166 -18.778515,-7.35433 -26.561246,-14.99424 -9.996176,-9.92477 -15.494051,-23.13398 -15.494051,-37.27142 0,-11.567006 9.853356,-20.99196 21.991567,-20.99196 12.138195,0 21.99156,9.424954 21.99156,20.99196 0,7.63992 6.64032,13.85183 14.85144,13.85183 8.21114,0 14.85146,-6.21191 14.85146,-13.85183 0,-26.918254 -23.20538,-48.767026 -51.765861,-48.767026 -20.277943,0 -38.84226,11.281391 -47.196188,28.77469 -2.784651,5.783491 -4.212678,12.566606 -4.212678,19.992336 0,5.56929 0.499812,14.35164 4.783883,25.77582 0.714009,1.85643 -0.214205,3.92707 -2.070634,4.56968 -1.856436,0.71401 -3.92707,-0.2856 -4.569677,-2.07064 -3.49866,-9.35356 -5.212293,-18.6357 -5.212293,-28.27486 0,-8.56815 1.642231,-16.35088 4.855284,-23.133995 9.496348,-19.920934 30.559717,-32.844548 53.622303,-32.844548 32.487531,0 58.905971,25.061817 58.905971,55.907141 0,11.566992 -9.85335,20.991942 -21.99157,20.991942 -12.13819,0 -21.991564,-9.42495 -21.991564,-20.991942 0,-7.639935 -6.640311,-13.851844 -14.851436,-13.851844 -8.211149,0 -14.85146,6.211909 -14.85146,13.851844 0,12.209602 4.712481,23.633782 13.352032,32.201932 6.783115,6.71171 13.280615,10.42458 23.348188,13.20921 1.92783,0.49981 2.99885,2.49905 2.49904,4.35548 -0.357,1.64223 -1.85643,2.71324 -3.35586,2.71324 z"
     inkscape:connector-curvature="0"
     sodipodi:nodetypes="scscccsccsscccccsccccsscssscscccssccsssssscscccscsssssscccs" />
  <path
     inkscape:connector-curvature="0"
     d="m 64.263904,149.13876 c -0.928214,0 -1.856437,-0.35701 -2.499044,-1.07101 -6.211893,-6.21191 -9.567749,-10.21037 -14.351632,-18.84992 -4.926687,-8.78236 -7.497132,-19.49252 -7.497132,-30.988128 0,-21.206149 18.135915,-38.485243 40.413081,-38.485243 22.277173,0 40.413073,17.279094 40.413073,38.485243 0,1.999238 -1.57083,3.570068 -3.57006,3.570068 -1.99923,0 -3.57006,-1.57083 -3.57006,-3.570068 0,-17.279087 -14.922849,-31.34512 -33.272953,-31.34512 -18.350112,0 -33.272958,14.066033 -33.272958,31.34512 0,10.281778 2.284839,19.778128 6.640311,27.489468 4.569686,8.21114 7.711321,11.7098 13.209221,17.27909 1.356625,1.42802 1.356625,3.64146 0,5.06949 -0.785419,0.714 -1.713633,1.07101 -2.641847,1.07101 z"
     id="path3804-6"
     style="font-style:normal;font-weight:normal;font-size:60px;line-height:1.25;font-family:sans-serif;letter-spacing:0px;word-spacing:0px;fill:#c3423f;fill-opacity:1;stroke:none;stroke-width:10.71017933"
     sodipodi:nodetypes="sccssssssscccs" />
</svg>
