<?xml version="1.0" encoding="UTF-8" standalone="no"?>
<svg
   xmlns:dc="http://purl.org/dc/elements/1.1/"
   xmlns:cc="http://creativecommons.org/ns#"
   xmlns:rdf="http://www.w3.org/1999/02/22-rdf-syntax-ns#"
   xmlns:svg="http://www.w3.org/2000/svg"
   xmlns="http://www.w3.org/2000/svg"
   xmlns:sodipodi="http://sodipodi.sourceforge.net/DTD/sodipodi-0.dtd"
   xmlns:inkscape="http://www.inkscape.org/namespaces/inkscape"
   enable-background="new 0 0 24 24"
   height="340"
   viewBox="0 0 360 340"
   width="360"
   version="1.1"
   id="svg26"
   sodipodi:docname="app_footer_logo.svg"
   style="fill:#000000"
   inkscape:version="0.92.5 (2060ec1f9f, 2020-04-08)"
   inkscape:export-filename="/home/katemiz/code/breeze/public/images/app_footer_logo.png"
   inkscape:export-xdpi="96"
   inkscape:export-ydpi="96">
  <metadata
     id="metadata32">
    <rdf:RDF>
      <cc:Work
         rdf:about="">
        <dc:format>image/svg+xml</dc:format>
        <dc:type
           rdf:resource="http://purl.org/dc/dcmitype/StillImage" />
        <dc:title />
      </cc:Work>
    </rdf:RDF>
  </metadata>
  <defs
     id="defs30" />
  <sodipodi:namedview
     pagecolor="#ffffff"
     bordercolor="#666666"
     borderopacity="1"
     objecttolerance="10"
     gridtolerance="10"
     guidetolerance="10"
     inkscape:pageopacity="0"
     inkscape:pageshadow="2"
     inkscape:window-width="1920"
     inkscape:window-height="1007"
     id="namedview28"
     showgrid="false"
     inkscape:zoom="1.33"
     inkscape:cx="103.11558"
     inkscape:cy="200.07519"
     inkscape:window-x="0"
     inkscape:window-y="0"
     inkscape:window-maximized="1"
     inkscape:current-layer="svg26" />
  <g
     id="g2926">
    <text
       xml:space="preserve"
       style="font-style:normal;font-weight:normal;font-size:40px;line-height:1.25;font-family:sans-serif;letter-spacing:0px;word-spacing:0px;fill:#083d77;fill-opacity:1;stroke:none;stroke-width:1.5"
       x="87.677414"
       y="284.2861"
       id="text3727"><tspan
         sodipodi:role="line"
         id="tspan3725"
         x="87.677414"
         y="284.2861"
         style="font-style:normal;font-variant:normal;font-weight:bold;font-stretch:normal;font-size:48px;font-family:Ubuntu;-inkscape-font-specification:'Ubuntu Bold';fill:#083d77;fill-opacity:1">k-<tspan
   id="tspan3842"
   style="font-style:normal;font-variant:normal;font-weight:300;font-stretch:normal;font-size:48px;font-family:Ubuntu;-inkscape-font-specification:'Ubuntu Light';fill:#083d77;fill-opacity:1">library</tspan></tspan></text>
    <path
       sodipodi:nodetypes="scscccsccsscccccsccccsscssscscccssccsssssscscccscsssssscccs"
       inkscape:connector-curvature="0"
       d="m 227.91182,51.449162 c -0.69143,0 -1.38287,-0.172857 -1.98787,-0.518575 -16.59443,-8.556507 -30.94171,-12.186539 -48.14115,-12.186539 -17.11302,0 -33.36173,4.062179 -48.14116,12.186539 -2.0743,1.123581 -4.66718,0.345718 -5.8772,-1.728588 -1.12356,-2.074304 -0.34571,-4.753614 1.72859,-5.877196 16.07587,-8.729364 33.70745,-13.223691 52.28977,-13.223691 18.40945,0 34.48532,4.06218 52.1169,13.137262 2.16073,1.123582 2.9386,3.716462 1.81502,5.790766 -0.77787,1.555729 -2.24717,2.420022 -3.8029,2.420022 z m -123.6804,45.375412 c -0.8643,0 -1.72859,-0.259289 -2.50646,-0.777865 -1.987865,-1.38287 -2.420015,-4.06218 -1.03715,-6.050055 8.55651,-12.100109 19.44662,-21.607338 32.41101,-28.262399 27.13881,-14.001554 61.88342,-14.087984 89.10866,-0.08643 12.96441,6.65506 23.85452,16.07586 32.41101,28.08954 1.38287,1.901445 0.95072,4.667186 -1.03715,6.050055 -1.98788,1.38287 -4.66719,0.950723 -6.05006,-1.037153 -7.77863,-10.890098 -17.63158,-19.446603 -29.29955,-25.410229 -24.80522,-12.705115 -56.5248,-12.705115 -81.24359,0.08643 -11.7544,6.050054 -21.60733,14.692989 -29.38598,25.583087 -0.69143,1.210012 -1.98787,1.815018 -3.37074,1.815018 z m 115.98819,88.330796 c -10.28509,0 -19.36017,-2.59288 -26.7931,-7.69221 -12.87797,-8.72937 -20.57018,-22.90378 -20.57018,-37.94248 0,-2.42002 1.90144,-4.32147 4.32147,-4.32147 2.42002,0 4.32147,1.90145 4.32147,4.32147 0,12.18653 6.2229,23.68163 16.76728,30.76884 6.13649,4.14861 13.31013,6.13648 21.95306,6.13648 2.0743,0 5.53148,-0.25928 8.98865,-0.86429 2.3336,-0.43215 4.58076,1.12358 5.01291,3.54361 0.43215,2.33359 -1.12358,4.58075 -3.54361,5.0129 -4.92647,0.95072 -9.24794,1.03715 -10.45795,1.03715 z m -17.3723,17.80444 c -0.34572,0 -0.77786,-0.0864 -1.12358,-0.17286 -13.74227,-3.8029 -22.73092,-8.90223 -32.15172,-18.15015 -12.10012,-12.01369 -18.75516,-28.00311 -18.75516,-45.11612 0,-14.00157 11.92724,-25.41024 26.62024,-25.41024 14.69298,0 26.62023,11.40867 26.62023,25.41024 0,9.24793 8.03794,16.76729 17.9773,16.76729 9.93938,0 17.97732,-7.51936 17.97732,-16.76729 0,-32.58387 -28.08954,-59.031255 -62.66128,-59.031255 -24.54594,0 -47.01758,13.655839 -57.1298,34.831035 -3.37075,7.00077 -5.09934,15.21156 -5.09934,24.20022 0,6.74148 0.60501,17.3723 5.79077,31.20098 0.86429,2.24717 -0.25929,4.75362 -2.50645,5.53149 -2.24717,0.86429 -4.75362,-0.34572 -5.53148,-2.50646 -4.23504,-11.32225 -6.30935,-22.55805 -6.30935,-34.22601 0,-10.37153 1.98788,-19.79233 5.8772,-28.00312 11.49509,-24.113786 36.99177,-39.757499 64.90845,-39.757499 39.32534,0 71.3042,30.336699 71.3042,67.674189 0,14.00155 -11.92724,25.41022 -26.62024,25.41022 -14.69298,0 -26.62024,-11.40867 -26.62024,-25.41022 0,-9.24795 -8.03793,-16.76731 -17.97729,-16.76731 -9.93939,0 -17.97732,7.51936 -17.97732,16.76731 0,14.77942 5.70434,28.6081 16.1623,38.97963 8.21079,8.12436 16.07585,12.61869 28.2624,15.98942 2.33359,0.605 3.63003,3.02503 3.02502,5.27219 -0.43214,1.98788 -2.24716,3.28432 -4.06218,3.28432 z"
       id="path3781"
       style="font-style:normal;font-weight:normal;font-size:60px;line-height:1.25;font-family:sans-serif;letter-spacing:0px;word-spacing:0px;fill:#404e4d;fill-opacity:1;stroke:none;stroke-width:12.96440315" />
    <path
       sodipodi:nodetypes="sccssssssscccs"
       style="font-style:normal;font-weight:normal;font-size:60px;line-height:1.25;font-family:sans-serif;letter-spacing:0px;word-spacing:0px;fill:#c3423f;fill-opacity:1;stroke:none;stroke-width:12.96440315"
       id="path3804"
       d="m 158.20655,201.14481 c -1.12358,0 -2.24717,-0.43215 -3.02503,-1.29644 -7.51934,-7.51936 -11.58152,-12.35939 -17.37229,-22.81735 -5.96363,-10.63082 -9.07509,-23.59521 -9.07509,-37.51035 0,-25.66951 21.95307,-46.585418 48.91902,-46.585418 26.96596,0 48.91901,20.915908 48.91901,46.585418 0,2.42003 -1.90145,4.32148 -4.32147,4.32148 -2.42002,0 -4.32147,-1.90145 -4.32147,-4.32148 0,-20.9159 -18.06373,-37.94248 -40.27607,-37.94248 -22.21235,0 -40.27608,17.02658 -40.27608,37.94248 0,12.44584 2.76574,23.94093 8.03793,33.27531 5.53149,9.93938 9.33436,14.17442 15.98943,20.9159 1.64216,1.72859 1.64216,4.4079 0,6.13649 -0.95073,0.86429 -2.07431,1.29644 -3.19789,1.29644 z"
       inkscape:connector-curvature="0" />
  </g>
  <g
     inkscape:groupmode="layer"
     id="layer1"
     inkscape:label="Layer 1"
     style="display:inline" />
  <g
     inkscape:groupmode="layer"
     id="layer2"
     inkscape:label="Layer 2" />
</svg>
