<?xml version="1.0" encoding="UTF-8" standalone="no"?>
<svg
   xmlns:dc="http://purl.org/dc/elements/1.1/"
   xmlns:cc="http://creativecommons.org/ns#"
   xmlns:rdf="http://www.w3.org/1999/02/22-rdf-syntax-ns#"
   xmlns:svg="http://www.w3.org/2000/svg"
   xmlns="http://www.w3.org/2000/svg"
   xmlns:sodipodi="http://sodipodi.sourceforge.net/DTD/sodipodi-0.dtd"
   xmlns:inkscape="http://www.inkscape.org/namespaces/inkscape"
   enable-background="new 0 0 24 24"
   height="64"
   viewBox="0 0 64 64"
   width="64"
   version="1.1"
   id="svg26"
   sodipodi:docname="favicon.svg"
   style="fill:#000000"
   inkscape:version="0.92.5 (2060ec1f9f, 2020-04-08)"
   inkscape:export-filename="/home/katemiz/code/breeze/public/images/app_footer_logo.png"
   inkscape:export-xdpi="96"
   inkscape:export-ydpi="96">
  <metadata
     id="metadata32">
    <rdf:RDF>
      <cc:Work
         rdf:about="">
        <dc:format>image/svg+xml</dc:format>
        <dc:type
           rdf:resource="http://purl.org/dc/dcmitype/StillImage" />
        <dc:title />
      </cc:Work>
    </rdf:RDF>
  </metadata>
  <defs
     id="defs30" />
  <sodipodi:namedview
     pagecolor="#ffffff"
     bordercolor="#666666"
     borderopacity="1"
     objecttolerance="10"
     gridtolerance="10"
     guidetolerance="10"
     inkscape:pageopacity="0"
     inkscape:pageshadow="2"
     inkscape:window-width="1920"
     inkscape:window-height="1007"
     id="namedview28"
     showgrid="false"
     inkscape:zoom="12.609375"
     inkscape:cx="17.724907"
     inkscape:cy="32"
     inkscape:window-x="0"
     inkscape:window-y="0"
     inkscape:window-maximized="1"
     inkscape:current-layer="svg26"
     borderlayer="true" />
  <g
     id="g3739"
     transform="matrix(1.3277529,0,0,1.3277529,45.057063,0.72011651)">
    <path
       sodipodi:nodetypes="scscccsccsscccccsccccsscssscscccssccsssssscscccscsssssscccs"
       inkscape:connector-curvature="0"
       d="m 1.8955495,8.3696613 c -0.1613678,0 -0.322738,-0.040342 -0.4639345,-0.1210265 -3.8728532,-1.9969409 -7.2212605,-2.8441276 -11.2353126,-2.8441276 -3.9938834,0 -7.7860514,0.9480424 -11.2353144,2.8441276 -0.484106,0.2622244 -1.08924,0.080685 -1.371637,-0.4034225 -0.26222,-0.4841068 -0.08068,-1.1094114 0.403423,-1.371636 3.75183,-2.0372827 7.866736,-3.086181 12.2035284,-3.086181 4.2964475,0 8.0482778,0.9480426 12.1631839,3.0660099 C 2.8637634,6.7156299 3.0453048,7.3207632 2.7830806,7.80487 2.6015392,8.1679502 2.25863,8.3696613 1.8955495,8.3696613 Z M -26.969319,18.959498 c -0.201712,0 -0.403423,-0.06051 -0.584964,-0.18154 -0.463933,-0.322738 -0.56479,-0.948043 -0.242053,-1.411978 1.996942,-2.823957 4.538505,-5.04278 7.56417,-6.595956 6.333729,-3.2677205 14.4425205,-3.2878918 20.79642109,-0.02017 3.02566931,1.553176 5.56723271,3.751828 7.56416971,6.555613 0.3227379,0.443765 0.2218816,1.089241 -0.2420529,1.411979 C 7.422435,19.040182 6.7971304,18.939327 6.4743924,18.475391 4.6589946,15.93383 2.3594863,13.93689 -0.36361626,12.545083 -6.152726,9.5799283 -13.555528,9.5799283 -19.324466,12.565254 c -2.743274,1.411978 -5.042778,3.42909 -6.85818,5.97065 -0.161368,0.282396 -0.463935,0.423594 -0.786673,0.423594 z M 0.10032058,39.57438 c -2.40036228,0 -4.51832918,-0.605134 -6.25304658,-1.795229 -3.0054956,-2.037284 -4.800725,-5.345347 -4.800725,-8.855119 0,-0.564791 0.443764,-1.008557 1.0085569,-1.008557 0.5647908,0 1.0085564,0.443766 1.0085564,1.008557 0,2.844125 1.4523173,5.526883 3.9131934,7.180915 1.4321508,0.968214 3.1063544,1.432149 5.12346488,1.432149 0.48410578,0 1.29095182,-0.06051 2.09779562,-0.201711 0.5446219,-0.100856 1.0690702,0.262224 1.1699265,0.827018 0.1008564,0.544619 -0.2622241,1.069068 -0.8270173,1.169924 C 1.3912724,39.554209 0.382716,39.57438 0.10032058,39.57438 Z M -3.954074,43.729628 c -0.080685,0 -0.1815391,-0.02016 -0.2622242,-0.04034 -3.2072084,-0.887531 -5.3050039,-2.077627 -7.5036558,-4.235932 -2.823959,-2.803787 -4.37713,-6.535441 -4.37713,-10.529322 0,-3.267725 2.783611,-5.930311 6.2127037,-5.930311 3.4290876,0 6.2127017,2.662586 6.2127017,5.930311 0,2.158307 1.8759163,3.913195 4.19559115,3.913195 2.31967955,0 4.19559585,-1.754888 4.19559585,-3.913195 0,-7.604513 -6.5556133,-13.776875 -14.62406,-13.776875 -5.7285984,0 -10.9730904,3.187037 -13.3331084,8.128962 -0.786674,1.633858 -1.190098,3.550115 -1.190098,5.647913 0,1.573345 0.141199,4.054394 1.351466,7.281769 0.20171,0.524451 -0.06051,1.109413 -0.584962,1.290954 -0.524451,0.201711 -1.109413,-0.08069 -1.290952,-0.584964 -0.988385,-2.642417 -1.472493,-5.264659 -1.472493,-7.987759 0,-2.420536 0.463937,-4.619188 1.371637,-6.535445 2.682755,-5.627741 8.63324,-9.278713 15.1485104,-9.278713 9.17785484,0 16.6411682,7.080061 16.6411682,15.793986 0,3.26772 -2.7836117,5.930307 -6.21270405,5.930307 -3.42908765,0 -6.21270405,-2.662587 -6.21270405,-5.930307 0,-2.158311 -1.8759139,-3.9132 -4.1955888,-3.9132 -2.3196817,0 -4.1955957,1.754889 -4.1955957,3.9132 0,3.449262 1.331294,6.676637 3.772001,9.097173 1.9162569,1.896085 3.751826,2.944984 6.5959562,3.731654 0.5446196,0.141196 0.8471862,0.70599 0.7059874,1.230438 -0.100854,0.463937 -0.5244483,0.766503 -0.9480426,0.766503 z"
       id="path3781"
       style="font-style:normal;font-weight:normal;font-size:60px;line-height:1.25;font-family:sans-serif;letter-spacing:0px;word-spacing:0px;fill:#404e4d;fill-opacity:1;stroke:none;stroke-width:3.02566767" />
    <path
       sodipodi:nodetypes="sccssssssscccs"
       style="font-style:normal;font-weight:normal;font-size:60px;line-height:1.25;font-family:sans-serif;letter-spacing:0px;word-spacing:0px;fill:#c3423f;fill-opacity:1;stroke:none;stroke-width:3.02566767"
       id="path3804"
       d="m -14.372456,43.306039 c -0.262224,0 -0.524451,-0.100857 -0.70599,-0.302567 -1.754884,-1.754889 -2.702926,-2.884468 -4.054392,-5.325175 -1.391808,-2.48105 -2.117969,-5.506714 -2.117969,-8.754268 0,-5.99082 5.123467,-10.872231 11.4168537,-10.872231 6.2933891,0 11.4168516,4.881411 11.4168516,10.872231 0,0.564794 -0.4437656,1.008559 -1.00855641,1.008559 -0.56479085,0 -1.00855643,-0.443765 -1.00855643,-1.008559 0,-4.881409 -4.21576246,-8.855119 -9.39973876,-8.855119 -5.1839787,0 -9.3997407,3.97371 -9.3997407,8.855119 0,2.904644 0.645476,5.5874 1.875914,7.765883 1.290954,2.319679 2.178478,3.308064 3.731656,4.881409 0.383252,0.403423 0.383252,1.028728 0,1.432151 -0.221884,0.20171 -0.484108,0.302567 -0.746332,0.302567 z"
       inkscape:connector-curvature="0" />
  </g>
</svg>
