<?xml version="1.0" encoding="UTF-8" standalone="no"?>
<svg
   xmlns:dc="http://purl.org/dc/elements/1.1/"
   xmlns:cc="http://creativecommons.org/ns#"
   xmlns:rdf="http://www.w3.org/1999/02/22-rdf-syntax-ns#"
   xmlns:svg="http://www.w3.org/2000/svg"
   xmlns="http://www.w3.org/2000/svg"
   xmlns:sodipodi="http://sodipodi.sourceforge.net/DTD/sodipodi-0.dtd"
   xmlns:inkscape="http://www.inkscape.org/namespaces/inkscape"
   width="400"
   height="128"
   id="svg5974"
   version="1.1"
   inkscape:version="0.92.5 (2060ec1f9f, 2020-04-08)"
   sodipodi:docname="kapkara_safe.svg"
   inkscape:export-filename="/home/katemiz/Desktop/Raspi.png"
   inkscape:export-xdpi="90"
   inkscape:export-ydpi="90">
  <defs
     id="defs5976">
    <clipPath
       id="_clipPath_nXuP1H4JEuJEGNecXDwHu9dkKVCaACbs">
      <rect
         y="0"
         x="0"
         id="rect700"
         height="315"
         width="560" />
    </clipPath>
    <clipPath
       id="_clipPath_5GnptCOllSOJ3bO73qvNTUgcvzTIUkS6">
      <rect
         id="rect993"
         height="315"
         width="560"
         x="0"
         y="0" />
    </clipPath>
    <clipPath
       id="_clipPath_5GnptCOllSOJ3bO73qvNTUgcvzTIUkS6-6">
      <rect
         width="560"
         height="315"
         id="rect993-3"
         x="0"
         y="0" />
    </clipPath>
    <clipPath
       id="_clipPath_5GnptCOllSOJ3bO73qvNTUgcvzTIUkS6-7">
      <rect
         width="560"
         height="315"
         id="rect993-5"
         x="0"
         y="0" />
    </clipPath>
    <clipPath
       id="_clipPath_5GnptCOllSOJ3bO73qvNTUgcvzTIUkS6-9">
      <rect
         width="560"
         height="315"
         id="rect993-6"
         x="0"
         y="0" />
    </clipPath>
  </defs>
  <sodipodi:namedview
     id="base"
     pagecolor="#ffffff"
     bordercolor="#666666"
     borderopacity="1.0"
     inkscape:pageopacity="0.0"
     inkscape:pageshadow="2"
     inkscape:zoom="3.2452381"
     inkscape:cx="210"
     inkscape:cy="64"
     inkscape:document-units="px"
     inkscape:current-layer="g5155"
     showgrid="false"
     inkscape:window-width="1920"
     inkscape:window-height="1028"
     inkscape:window-x="0"
     inkscape:window-y="0"
     inkscape:window-maximized="1"
     borderlayer="true"
     showguides="true"
     inkscape:guide-bbox="true"
     inkscape:document-rotation="0" />
  <metadata
     id="metadata5979">
    <rdf:RDF>
      <cc:Work
         rdf:about="">
        <dc:format>image/svg+xml</dc:format>
        <dc:type
           rdf:resource="http://purl.org/dc/dcmitype/StillImage" />
        <dc:title></dc:title>
      </cc:Work>
    </rdf:RDF>
  </metadata>
  <g
     inkscape:label="MAIN"
     inkscape:groupmode="layer"
     id="layer1"
     transform="translate(0,547.63782)"
     style="display:inline" />
  <g
     inkscape:groupmode="layer"
     id="layer5"
     inkscape:label="TR"
     style="display:inline"
     transform="translate(0,1539)">
    <g
       style="fill:#000000;fill-opacity:1"
       id="g5155"
       transform="matrix(4.3522266,0,0,4.3522266,-379.60682,-1656.976)">
      <g
         aria-label="kapkara"
         style="font-style:normal;font-weight:normal;font-size:10.58333302px;line-height:1.25;font-family:sans-serif;letter-spacing:0px;word-spacing:0px;fill:#000000;fill-opacity:1;stroke:none;stroke-width:0.26458332"
         id="text5131">
        <path
           d="m 122.48262,37.9692 0.91639,-1.171333 2.15663,-2.342664 h 2.37023 l -3.05925,3.341742 3.24528,4.361491 h -2.42535 l -2.21864,-3.121257 -0.90261,0.72347 v 2.397787 h -2.10151 V 31.437299 h 2.10151 v 4.781792 l -0.11025,1.750109 z"
           style="font-style:normal;font-variant:normal;font-weight:bold;font-stretch:normal;font-size:14.11111069px;font-family:'Open Sans';-inkscape-font-specification:'Open Sans Bold';fill:#000000;fill-opacity:1;stroke-width:0.26458332"
           id="path948" />
        <path
           d="m 134.10637,42.158436 -0.40652,-1.047309 h -0.0551 q -0.53054,0.668348 -1.09554,0.930176 -0.5581,0.254937 -1.46072,0.254937 -1.10932,0 -1.7501,-0.633898 -0.6339,-0.633897 -0.6339,-1.80523 0,-1.226454 0.85438,-1.80523 0.86128,-0.585666 2.59071,-0.647678 l 1.3367,-0.04134 v -0.337619 q 0,-1.171333 -1.19889,-1.171333 -0.92329,0 -2.17041,0.558106 l -0.69591,-1.41938 q 1.3298,-0.695909 2.949,-0.695909 1.55029,0 2.37711,0.675239 0.82683,0.675239 0.82683,2.053277 v 5.133192 z m -0.62012,-3.569119 -0.81304,0.02756 q -0.9164,0.02756 -1.36426,0.330729 -0.44786,0.303168 -0.44786,0.923285 0,0.888835 1.01975,0.888835 0.73036,0 1.16444,-0.420302 0.44097,-0.420301 0.44097,-1.11621 z"
           style="font-style:normal;font-variant:normal;font-weight:bold;font-stretch:normal;font-size:14.11111069px;font-family:'Open Sans';-inkscape-font-specification:'Open Sans Bold';fill:#000000;fill-opacity:1;stroke-width:0.26458332"
           id="path950" />
        <path
           d="m 141.96807,42.29624 q -1.35736,0 -2.12906,-0.985298 h -0.11025 q 0.11025,0.964627 0.11025,1.116211 V 45.54841 H 137.7375 V 34.455203 h 1.70876 l 0.29628,0.999077 h 0.0965 q 0.73725,-1.143771 2.18419,-1.143771 1.36425,0 2.13596,1.054199 0.7717,1.054199 0.7717,2.928331 0,1.233344 -0.36518,2.142849 -0.35829,0.909505 -1.02664,1.384928 -0.66835,0.475424 -1.57097,0.475424 z m -0.62011,-6.304525 q -0.77859,0 -1.13688,0.482313 -0.35829,0.475424 -0.37207,1.577854 v 0.227376 q 0,1.240235 0.36518,1.77767 0.37207,0.537435 1.17133,0.537435 1.41249,0 1.41249,-2.328885 0,-1.136881 -0.3514,-1.701877 -0.34451,-0.571886 -1.08865,-0.571886 z"
           style="font-style:normal;font-variant:normal;font-weight:bold;font-stretch:normal;font-size:14.11111069px;font-family:'Open Sans';-inkscape-font-specification:'Open Sans Bold';fill:#000000;fill-opacity:1;stroke-width:0.26458332"
           id="path952" />
        <path
           d="m 148.68601,37.9692 0.9164,-1.171333 2.15663,-2.342664 h 2.37022 l -3.05924,3.341742 3.24528,4.361491 h -2.42535 l -2.21864,-3.121257 -0.90262,0.72347 v 2.397787 h -2.1015 V 31.437299 h 2.1015 v 4.781792 l -0.11024,1.750109 z"
           style="font-style:normal;font-variant:normal;font-weight:bold;font-stretch:normal;font-size:14.11111069px;font-family:'Open Sans';-inkscape-font-specification:'Open Sans Bold';fill:#000000;fill-opacity:1;stroke-width:0.26458332"
           id="path954" />
        <path
           d="m 160.30976,42.158436 -0.40652,-1.047309 h -0.0551 q -0.53055,0.668348 -1.09554,0.930176 -0.55811,0.254937 -1.46072,0.254937 -1.10932,0 -1.75011,-0.633898 -0.6339,-0.633897 -0.6339,-1.80523 0,-1.226454 0.85439,-1.80523 0.86127,-0.585666 2.59071,-0.647678 l 1.33669,-0.04134 v -0.337619 q 0,-1.171333 -1.19889,-1.171333 -0.92328,0 -2.17041,0.558106 l -0.69591,-1.41938 q 1.32981,-0.695909 2.949,-0.695909 1.5503,0 2.37712,0.675239 0.82682,0.675239 0.82682,2.053277 v 5.133192 z m -0.62012,-3.569119 -0.81304,0.02756 q -0.91639,0.02756 -1.36426,0.330729 -0.44786,0.303168 -0.44786,0.923285 0,0.888835 1.01975,0.888835 0.73036,0 1.16444,-0.420302 0.44097,-0.420301 0.44097,-1.11621 z"
           style="font-style:normal;font-variant:normal;font-weight:bold;font-stretch:normal;font-size:14.11111069px;font-family:'Open Sans';-inkscape-font-specification:'Open Sans Bold';fill:#000000;fill-opacity:1;stroke-width:0.26458332"
           id="path956" />
        <path
           d="m 168.24037,34.310509 q 0.42719,0 0.70969,0.06201 l -0.15847,1.970595 q -0.25494,-0.0689 -0.62012,-0.0689 -1.00597,0 -1.57096,0.516764 -0.55811,0.516765 -0.55811,1.44694 v 3.920519 h -2.10151 v -7.703233 h 1.59164 l 0.31006,1.295355 h 0.10335 q 0.35829,-0.647678 0.96463,-1.040418 0.61322,-0.399631 1.3298,-0.399631 z"
           style="font-style:normal;font-variant:normal;font-weight:bold;font-stretch:normal;font-size:14.11111069px;font-family:'Open Sans';-inkscape-font-specification:'Open Sans Bold';fill:#000000;fill-opacity:1;stroke-width:0.26458332"
           id="path958" />
        <path
           d="m 175.24081,42.158436 -0.40652,-1.047309 h -0.0551 q -0.53054,0.668348 -1.09554,0.930176 -0.5581,0.254937 -1.46072,0.254937 -1.10932,0 -1.7501,-0.633898 -0.6339,-0.633897 -0.6339,-1.80523 0,-1.226454 0.85438,-1.80523 0.86128,-0.585666 2.59071,-0.647678 l 1.3367,-0.04134 v -0.337619 q 0,-1.171333 -1.19889,-1.171333 -0.92329,0 -2.17041,0.558106 l -0.69591,-1.41938 q 1.3298,-0.695909 2.949,-0.695909 1.55029,0 2.37712,0.675239 0.82682,0.675239 0.82682,2.053277 v 5.133192 z m -0.62012,-3.569119 -0.81304,0.02756 q -0.9164,0.02756 -1.36426,0.330729 -0.44786,0.303168 -0.44786,0.923285 0,0.888835 1.01975,0.888835 0.73036,0 1.16444,-0.420302 0.44097,-0.420301 0.44097,-1.11621 z"
           style="font-style:normal;font-variant:normal;font-weight:bold;font-stretch:normal;font-size:14.11111069px;font-family:'Open Sans';-inkscape-font-specification:'Open Sans Bold';fill:#000000;fill-opacity:1;stroke-width:0.26458332"
           id="path960" />
      </g>
      <g
         aria-label="simplicity in action"
         style="font-style:normal;font-weight:normal;font-size:10.58333302px;line-height:1.25;font-family:sans-serif;letter-spacing:0px;word-spacing:0px;fill:#000000;fill-opacity:1;stroke:none;stroke-width:0.26458332"
         id="text5135">
        <path
           d="m 121.5574,50.876356 q 0.40217,0 0.56445,-0.148166 0.16227,-0.148167 0.16227,-0.352778 0,-0.232833 -0.13405,-0.359833 -0.127,-0.127 -0.3175,-0.204611 -0.1905,-0.07761 -0.42334,-0.134056 -0.22577,-0.0635 -0.41627,-0.162278 -0.1905,-0.09878 -0.32456,-0.261055 -0.127,-0.162278 -0.127,-0.458611 0,-0.169334 0.0564,-0.338667 0.0635,-0.169333 0.19755,-0.303389 0.13406,-0.141111 0.34572,-0.225778 0.21167,-0.09172 0.51506,-0.09172 0.17639,0 0.34572,0.03528 0.16933,0.02822 0.30339,0.07761 0.13406,0.04233 0.21167,0.105833 0.0847,0.0635 0.0847,0.127 0,0.05644 -0.0564,0.148167 -0.0494,0.09172 -0.13406,0.09172 -0.0423,0 -0.10583,-0.02822 -0.0635,-0.03528 -0.15522,-0.07056 -0.0917,-0.03528 -0.21167,-0.0635 -0.11994,-0.03528 -0.27517,-0.03528 -0.19755,0 -0.33161,0.05644 -0.13405,0.04939 -0.21872,0.134056 -0.0847,0.07761 -0.11994,0.176388 -0.0353,0.09878 -0.0353,0.183445 0,0.204611 0.127,0.310444 0.13405,0.105834 0.32455,0.176389 0.19756,0.0635 0.42334,0.127 0.22578,0.05645 0.41628,0.169334 0.19755,0.105833 0.32455,0.296333 0.13406,0.183444 0.13406,0.500944 0,0.423334 -0.29634,0.670278 -0.29633,0.239889 -0.83961,0.239889 -0.24694,0 -0.45155,-0.04939 -0.20461,-0.04939 -0.35278,-0.119944 -0.14111,-0.07761 -0.22578,-0.169334 -0.0776,-0.09172 -0.0776,-0.169333 0,-0.07056 0.0423,-0.141111 0.0494,-0.07056 0.11995,-0.07056 0.0564,0 0.11994,0.05645 0.0635,0.04939 0.16228,0.112889 0.10583,0.05644 0.254,0.112888 0.15522,0.04939 0.39511,0.04939 z"
           style="font-style:normal;font-variant:normal;font-weight:normal;font-stretch:normal;font-size:7.05555534px;font-family:Dosis;-inkscape-font-specification:Dosis;fill:#000000;fill-opacity:1;stroke-width:0.26458332"
           id="path963" />
        <path
           d="m 123.61761,47.877745 q 0.0988,0 0.16228,0.04939 0.0706,0.04233 0.0706,0.119945 v 2.9845 q 0,0.07055 -0.0706,0.127 -0.0635,0.05644 -0.16228,0.05644 -0.0988,0 -0.16228,-0.05644 -0.0635,-0.05645 -0.0635,-0.127 v -2.9845 q 0,-0.07761 0.0635,-0.119945 0.0635,-0.04939 0.16228,-0.04939 z m 0,-1.573388 q 0.127,0 0.21167,0.08467 0.0917,0.08467 0.0917,0.204611 0,0.119945 -0.0917,0.211667 -0.0847,0.08467 -0.21167,0.08467 -0.13405,0 -0.22578,-0.08467 -0.0917,-0.09172 -0.0917,-0.211667 0,-0.119944 0.0917,-0.204611 0.0917,-0.08467 0.22578,-0.08467 z"
           style="font-style:normal;font-variant:normal;font-weight:normal;font-stretch:normal;font-size:7.05555534px;font-family:Dosis;-inkscape-font-specification:Dosis;fill:#000000;fill-opacity:1;stroke-width:0.26458332"
           id="path965" />
        <path
           d="m 126.83494,49.133634 q 0,-0.1905 -0.0635,-0.345722 -0.0635,-0.162278 -0.17638,-0.275167 -0.10584,-0.119944 -0.254,-0.183444 -0.14817,-0.07056 -0.31045,-0.07056 -0.15522,0 -0.30339,0.0635 -0.14816,0.05644 -0.26811,0.169334 -0.11289,0.112889 -0.1905,0.282222 -0.0705,0.169333 -0.0705,0.381 v 1.876778 q 0,0.07055 -0.0706,0.127 -0.0635,0.05644 -0.16228,0.05644 -0.0988,0 -0.16228,-0.05644 -0.0635,-0.05645 -0.0635,-0.127 v -2.9845 q 0,-0.07761 0.0635,-0.119945 0.0635,-0.04939 0.16228,-0.04939 0.0917,0 0.15522,0.04939 0.0635,0.04233 0.0635,0.119945 v 0.324555 q 0.11995,-0.204611 0.35278,-0.366889 0.23284,-0.169333 0.58561,-0.169333 0.35278,0 0.61384,0.197556 0.26105,0.1905 0.38805,0.508 0.18345,-0.359834 0.47272,-0.529167 0.28928,-0.176389 0.59973,-0.176389 0.22577,0 0.43744,0.09172 0.21872,0.08467 0.381,0.254 0.16933,0.169334 0.26811,0.416278 0.0988,0.239889 0.0988,0.557389 v 1.876778 q 0,0.07055 -0.0706,0.127 -0.0635,0.05644 -0.16227,0.05644 -0.0917,0 -0.16228,-0.05644 -0.0635,-0.05645 -0.0635,-0.127 v -1.876778 q 0,-0.218722 -0.0706,-0.388056 -0.0706,-0.169333 -0.1905,-0.282222 -0.11289,-0.112889 -0.254,-0.169333 -0.14111,-0.05645 -0.28927,-0.05645 -0.15523,0 -0.30339,0.0635 -0.14817,0.05644 -0.26811,0.169334 -0.11289,0.112889 -0.18345,0.275166 -0.0705,0.162278 -0.0705,0.359834 v 1.912055 q 0,0.09878 -0.0776,0.141111 -0.0705,0.03528 -0.15522,0.03528 -0.0776,0 -0.15522,-0.03528 -0.0706,-0.04233 -0.0706,-0.141111 z"
           style="font-style:normal;font-variant:normal;font-weight:normal;font-stretch:normal;font-size:7.05555534px;font-family:Dosis;-inkscape-font-specification:Dosis;fill:#000000;fill-opacity:1;stroke-width:0.26458332"
           id="path967" />
        <path
           d="m 130.46855,47.877745 q 0.0917,0 0.15522,0.04939 0.0635,0.04233 0.0635,0.119945 v 0.324555 q 0.11994,-0.204611 0.35278,-0.366889 0.23989,-0.169333 0.59266,-0.169333 0.26106,0 0.49389,0.105833 0.23284,0.09878 0.40217,0.282223 0.17639,0.176388 0.27517,0.416277 0.0988,0.239889 0.0988,0.515056 v 0.769055 q 0,0.261056 -0.10583,0.508 -0.0988,0.239889 -0.27517,0.423334 -0.16933,0.183444 -0.39511,0.296333 -0.22578,0.112889 -0.47272,0.112889 -0.32456,0 -0.57856,-0.162278 -0.254,-0.162278 -0.37394,-0.381 v 1.954389 q 0,0.0635 -0.0706,0.119944 -0.0635,0.05644 -0.16227,0.05644 -0.0988,0 -0.16228,-0.05644 -0.0635,-0.05644 -0.0635,-0.119944 v -4.628444 q 0,-0.07761 0.0635,-0.119945 0.0635,-0.04939 0.16228,-0.04939 z m 1.97555,1.277056 q 0,-0.169333 -0.0705,-0.331611 -0.0706,-0.162278 -0.1905,-0.282222 -0.11995,-0.127 -0.28223,-0.204612 -0.16227,-0.07761 -0.34572,-0.07761 -0.16228,0 -0.3175,0.0635 -0.14816,0.05644 -0.26811,0.176389 -0.11994,0.112889 -0.19755,0.282222 -0.0706,0.162278 -0.0706,0.373945 v 0.987778 q 0,0.07761 0.0635,0.197555 0.0635,0.119945 0.17639,0.232834 0.11994,0.112888 0.27517,0.190499 0.16227,0.07761 0.35277,0.07761 0.17639,0 0.33161,-0.07761 0.16228,-0.07761 0.28223,-0.204611 0.11994,-0.127 0.1905,-0.289277 0.0705,-0.169334 0.0705,-0.345723 z"
           style="font-style:normal;font-variant:normal;font-weight:normal;font-stretch:normal;font-size:7.05555534px;font-family:Dosis;-inkscape-font-specification:Dosis;fill:#000000;fill-opacity:1;stroke-width:0.26458332"
           id="path969" />
        <path
           d="m 133.93988,45.831634 q 0.0988,0 0.16227,0.04939 0.0706,0.04233 0.0706,0.119945 v 5.030611 q 0,0.07055 -0.0706,0.127 -0.0635,0.05644 -0.16227,0.05644 -0.0988,0 -0.16228,-0.05644 -0.0635,-0.05645 -0.0635,-0.127 v -5.030611 q 0,-0.07761 0.0635,-0.119945 0.0635,-0.04939 0.16228,-0.04939 z"
           style="font-style:normal;font-variant:normal;font-weight:normal;font-stretch:normal;font-size:7.05555534px;font-family:Dosis;-inkscape-font-specification:Dosis;fill:#000000;fill-opacity:1;stroke-width:0.26458332"
           id="path971" />
        <path
           d="m 135.34392,47.877745 q 0.0988,0 0.16228,0.04939 0.0706,0.04233 0.0706,0.119945 v 2.9845 q 0,0.07055 -0.0706,0.127 -0.0635,0.05644 -0.16228,0.05644 -0.0988,0 -0.16227,-0.05644 -0.0635,-0.05645 -0.0635,-0.127 v -2.9845 q 0,-0.07761 0.0635,-0.119945 0.0635,-0.04939 0.16227,-0.04939 z m 0,-1.573388 q 0.127,0 0.21167,0.08467 0.0917,0.08467 0.0917,0.204611 0,0.119945 -0.0917,0.211667 -0.0847,0.08467 -0.21167,0.08467 -0.13405,0 -0.22577,-0.08467 -0.0917,-0.09172 -0.0917,-0.211667 0,-0.119944 0.0917,-0.204611 0.0917,-0.08467 0.22577,-0.08467 z"
           style="font-style:normal;font-variant:normal;font-weight:normal;font-stretch:normal;font-size:7.05555534px;font-family:Dosis;-inkscape-font-specification:Dosis;fill:#000000;fill-opacity:1;stroke-width:0.26458332"
           id="path973" />
        <path
           d="m 137.71459,51.264412 q -0.35278,0 -0.61383,-0.09878 -0.254,-0.105833 -0.42334,-0.282222 -0.16933,-0.183444 -0.254,-0.423333 -0.0776,-0.246945 -0.0776,-0.536223 v -0.754944 q 0,-0.282222 0.0776,-0.522111 0.0847,-0.246945 0.24695,-0.423333 0.16933,-0.183445 0.42333,-0.282223 0.26106,-0.105833 0.61383,-0.105833 0.22578,0 0.40923,0.04939 0.18344,0.04233 0.31044,0.112889 0.13406,0.0635 0.20461,0.148166 0.0706,0.07761 0.0706,0.148167 0,0.07761 -0.0635,0.155222 -0.0564,0.07056 -0.14111,0.07056 -0.0494,0 -0.10584,-0.04233 -0.0494,-0.04233 -0.13405,-0.08467 -0.0847,-0.04939 -0.21167,-0.09172 -0.127,-0.04233 -0.3175,-0.04233 -0.46567,0 -0.6985,0.246945 -0.22578,0.239889 -0.22578,0.663222 v 0.754944 q 0,0.430389 0.23284,0.677334 0.23283,0.239889 0.6985,0.239889 0.20461,0 0.33161,-0.04233 0.13405,-0.04233 0.21872,-0.09172 0.0847,-0.04939 0.13405,-0.09172 0.0564,-0.04233 0.11289,-0.04233 0.0988,0 0.15523,0.07761 0.0564,0.07055 0.0564,0.148166 0,0.07056 -0.0776,0.155222 -0.0706,0.07761 -0.20461,0.148167 -0.13406,0.07056 -0.32456,0.112889 -0.1905,0.04939 -0.42333,0.04939 z"
           style="font-style:normal;font-variant:normal;font-weight:normal;font-stretch:normal;font-size:7.05555534px;font-family:Dosis;-inkscape-font-specification:Dosis;fill:#000000;fill-opacity:1;stroke-width:0.26458332"
           id="path975" />
        <path
           d="m 139.59136,47.877745 q 0.0988,0 0.16228,0.04939 0.0705,0.04233 0.0705,0.119945 v 2.9845 q 0,0.07055 -0.0705,0.127 -0.0635,0.05644 -0.16228,0.05644 -0.0988,0 -0.16228,-0.05644 -0.0635,-0.05645 -0.0635,-0.127 v -2.9845 q 0,-0.07761 0.0635,-0.119945 0.0635,-0.04939 0.16228,-0.04939 z m 0,-1.573388 q 0.127,0 0.21167,0.08467 0.0917,0.08467 0.0917,0.204611 0,0.119945 -0.0917,0.211667 -0.0847,0.08467 -0.21167,0.08467 -0.13405,0 -0.22578,-0.08467 -0.0917,-0.09172 -0.0917,-0.211667 0,-0.119944 0.0917,-0.204611 0.0917,-0.08467 0.22578,-0.08467 z"
           style="font-style:normal;font-variant:normal;font-weight:normal;font-stretch:normal;font-size:7.05555534px;font-family:Dosis;-inkscape-font-specification:Dosis;fill:#000000;fill-opacity:1;stroke-width:0.26458332"
           id="path977" />
        <path
           d="m 141.1577,50.177856 q 0,0.345723 0.14111,0.486834 0.14816,0.134055 0.51505,0.134055 h 0.19756 q 0.0988,0 0.15522,0.0635 0.0564,0.0635 0.0564,0.141111 0,0.08467 -0.0564,0.148167 -0.0564,0.0635 -0.15522,0.0635 h -0.19756 q -0.55033,0 -0.83255,-0.239889 -0.28223,-0.246944 -0.28223,-0.797278 v -3.718277 q 0,-0.07761 0.0706,-0.119945 0.0776,-0.04939 0.15522,-0.04939 0.0847,0 0.15522,0.04939 0.0776,0.04233 0.0776,0.119945 v 1.418166 h 0.91016 q 0.0706,0 0.11289,0.05645 0.0494,0.05644 0.0494,0.134055 0,0.07761 -0.0494,0.134056 -0.0423,0.05644 -0.11289,0.05644 h -0.91016 z"
           style="font-style:normal;font-variant:normal;font-weight:normal;font-stretch:normal;font-size:7.05555534px;font-family:Dosis;-inkscape-font-specification:Dosis;fill:#000000;fill-opacity:1;stroke-width:0.26458332"
           id="path979" />
        <path
           d="m 142.48413,48.117634 q -0.0212,-0.02822 -0.0212,-0.0635 0,-0.09172 0.0917,-0.155222 0.0988,-0.0635 0.1905,-0.0635 0.0564,0 0.0988,0.02117 0.0494,0.02117 0.0635,0.07761 l 0.96661,2.596444 0.91016,-2.596444 q 0.0423,-0.09878 0.15522,-0.09878 0.0847,0 0.18345,0.0635 0.0988,0.0635 0.0988,0.162278 0,0.01411 0,0.02822 0,0.01411 -0.0141,0.02822 l -1.09362,2.963333 q -0.10583,0.289278 -0.23283,0.599723 -0.11994,0.310444 -0.28928,0.5715 -0.16933,0.261055 -0.39511,0.430389 -0.21872,0.169333 -0.51505,0.169333 -0.0917,0 -0.15522,-0.04233 -0.0564,-0.04233 -0.0564,-0.162278 0,-0.07761 0.0282,-0.148167 0.0353,-0.0635 0.11289,-0.0635 0.16934,0 0.32456,-0.112889 0.15522,-0.105833 0.28927,-0.296333 0.13406,-0.183445 0.23989,-0.430389 0.10584,-0.246944 0.16934,-0.522111 z"
           style="font-style:normal;font-variant:normal;font-weight:normal;font-stretch:normal;font-size:7.05555534px;font-family:Dosis;-inkscape-font-specification:Dosis;fill:#000000;fill-opacity:1;stroke-width:0.26458332"
           id="path981" />
        <path
           d="m 147.40889,47.877745 q 0.0988,0 0.16228,0.04939 0.0705,0.04233 0.0705,0.119945 v 2.9845 q 0,0.07055 -0.0705,0.127 -0.0635,0.05644 -0.16228,0.05644 -0.0988,0 -0.16228,-0.05644 -0.0635,-0.05645 -0.0635,-0.127 v -2.9845 q 0,-0.07761 0.0635,-0.119945 0.0635,-0.04939 0.16228,-0.04939 z m 0,-1.573388 q 0.127,0 0.21167,0.08467 0.0917,0.08467 0.0917,0.204611 0,0.119945 -0.0917,0.211667 -0.0847,0.08467 -0.21167,0.08467 -0.13406,0 -0.22578,-0.08467 -0.0917,-0.09172 -0.0917,-0.211667 0,-0.119944 0.0917,-0.204611 0.0917,-0.08467 0.22578,-0.08467 z"
           style="font-style:normal;font-variant:normal;font-weight:normal;font-stretch:normal;font-size:7.05555534px;font-family:Dosis;-inkscape-font-specification:Dosis;fill:#000000;fill-opacity:1;stroke-width:0.26458332"
           id="path983" />
        <path
           d="m 148.98933,51.031579 q 0,0.07055 -0.0705,0.127 -0.0635,0.05644 -0.16228,0.05644 -0.0988,0 -0.16228,-0.05644 -0.0635,-0.05645 -0.0635,-0.127 v -2.9845 q 0,-0.07761 0.0635,-0.119945 0.0635,-0.04939 0.16228,-0.04939 0.0847,0 0.14817,0.04939 0.0635,0.04233 0.0635,0.119945 v 0.324555 q 0.11288,-0.204611 0.34572,-0.366889 0.23989,-0.169333 0.59972,-0.169333 0.254,0 0.47978,0.105833 0.23283,0.09878 0.40216,0.282223 0.16934,0.176388 0.26812,0.416277 0.10583,0.239889 0.10583,0.515056 v 1.876778 q 0,0.09172 -0.0776,0.141111 -0.0706,0.04233 -0.15522,0.04233 -0.0776,0 -0.15523,-0.04233 -0.0705,-0.04939 -0.0705,-0.141111 v -1.876778 q 0,-0.169333 -0.0706,-0.331611 -0.0705,-0.162278 -0.1905,-0.282222 -0.11994,-0.127 -0.28222,-0.204612 -0.15522,-0.07761 -0.33867,-0.07761 -0.15522,0 -0.31044,0.0635 -0.14817,0.05644 -0.26811,0.176389 -0.11289,0.112889 -0.1905,0.282222 -0.0706,0.162278 -0.0706,0.373945 z"
           style="font-style:normal;font-variant:normal;font-weight:normal;font-stretch:normal;font-size:7.05555534px;font-family:Dosis;-inkscape-font-specification:Dosis;fill:#000000;fill-opacity:1;stroke-width:0.26458332"
           id="path985" />
        <path
           d="m 154.39387,47.835412 q 0.35278,0 0.59266,0.112889 0.24695,0.112889 0.39512,0.303389 0.15522,0.1905 0.21872,0.437444 0.0705,0.246945 0.0705,0.508 v 1.834445 q 0,0.07761 -0.0635,0.134055 -0.0635,0.04939 -0.16227,0.04939 -0.0917,0 -0.15523,-0.04939 -0.0564,-0.05644 -0.0564,-0.134055 v -0.310445 q -0.18345,0.211667 -0.4445,0.381 -0.26106,0.162278 -0.62089,0.162278 -0.20461,0 -0.381,-0.05645 -0.16933,-0.05644 -0.30339,-0.169333 -0.127,-0.119944 -0.20461,-0.289278 -0.0706,-0.176388 -0.0706,-0.416277 0,-0.289278 0.11995,-0.472723 0.11994,-0.1905 0.33161,-0.296333 0.21872,-0.112889 0.52211,-0.155222 0.30339,-0.04233 0.67028,-0.04233 h 0.35983 v -0.169334 q 0,-0.169333 -0.0494,-0.338666 -0.0423,-0.169334 -0.14111,-0.303389 -0.0988,-0.141111 -0.26105,-0.225778 -0.15523,-0.09172 -0.381,-0.09172 -0.17639,0 -0.30339,0.03528 -0.11995,0.02822 -0.21167,0.07056 -0.0847,0.03528 -0.14111,0.07056 -0.0564,0.02822 -0.0988,0.02822 -0.0917,0 -0.14111,-0.08467 -0.0423,-0.08467 -0.0423,-0.162278 0,-0.07055 0.0847,-0.134055 0.0847,-0.0635 0.21873,-0.112889 0.14111,-0.04939 0.31044,-0.07761 0.16933,-0.03528 0.33867,-0.03528 z m 0.81844,1.848556 h -0.29633 q -0.24695,0 -0.47272,0.02117 -0.21873,0.01411 -0.39511,0.07761 -0.17639,0.0635 -0.28223,0.183445 -0.0988,0.119944 -0.0988,0.324555 0,0.310445 0.17638,0.451556 0.17639,0.134055 0.43745,0.134055 0.16933,0 0.33161,-0.07055 0.16933,-0.07056 0.30339,-0.176389 0.13405,-0.112889 0.21167,-0.239889 0.0847,-0.134055 0.0847,-0.254 z"
           style="font-style:normal;font-variant:normal;font-weight:normal;font-stretch:normal;font-size:7.05555534px;font-family:Dosis;-inkscape-font-specification:Dosis;fill:#000000;fill-opacity:1;stroke-width:0.26458332"
           id="path987" />
        <path
           d="m 157.78053,51.264412 q -0.35277,0 -0.61383,-0.09878 -0.254,-0.105833 -0.42333,-0.282222 -0.16934,-0.183444 -0.254,-0.423333 -0.0776,-0.246945 -0.0776,-0.536223 v -0.754944 q 0,-0.282222 0.0776,-0.522111 0.0847,-0.246945 0.24694,-0.423333 0.16933,-0.183445 0.42333,-0.282223 0.26106,-0.105833 0.61384,-0.105833 0.22578,0 0.40922,0.04939 0.18344,0.04233 0.31044,0.112889 0.13406,0.0635 0.20462,0.148166 0.0706,0.07761 0.0706,0.148167 0,0.07761 -0.0635,0.155222 -0.0564,0.07056 -0.14111,0.07056 -0.0494,0 -0.10583,-0.04233 -0.0494,-0.04233 -0.13406,-0.08467 -0.0847,-0.04939 -0.21167,-0.09172 -0.127,-0.04233 -0.3175,-0.04233 -0.46566,0 -0.6985,0.246945 -0.22577,0.239889 -0.22577,0.663222 v 0.754944 q 0,0.430389 0.23283,0.677334 0.23283,0.239889 0.6985,0.239889 0.20461,0 0.33161,-0.04233 0.13406,-0.04233 0.21872,-0.09172 0.0847,-0.04939 0.13406,-0.09172 0.0564,-0.04233 0.11289,-0.04233 0.0988,0 0.15522,0.07761 0.0564,0.07055 0.0564,0.148166 0,0.07056 -0.0776,0.155222 -0.0706,0.07761 -0.20461,0.148167 -0.13405,0.07056 -0.32455,0.112889 -0.1905,0.04939 -0.42334,0.04939 z"
           style="font-style:normal;font-variant:normal;font-weight:normal;font-stretch:normal;font-size:7.05555534px;font-family:Dosis;-inkscape-font-specification:Dosis;fill:#000000;fill-opacity:1;stroke-width:0.26458332"
           id="path989" />
        <path
           d="m 159.87603,50.177856 q 0,0.345723 0.14111,0.486834 0.14817,0.134055 0.51506,0.134055 h 0.19755 q 0.0988,0 0.15522,0.0635 0.0564,0.0635 0.0564,0.141111 0,0.08467 -0.0564,0.148167 -0.0564,0.0635 -0.15522,0.0635 h -0.19755 q -0.55034,0 -0.83256,-0.239889 -0.28222,-0.246944 -0.28222,-0.797278 v -3.718277 q 0,-0.07761 0.0705,-0.119945 0.0776,-0.04939 0.15523,-0.04939 0.0847,0 0.15522,0.04939 0.0776,0.04233 0.0776,0.119945 v 1.418166 h 0.91017 q 0.0705,0 0.11289,0.05645 0.0494,0.05644 0.0494,0.134055 0,0.07761 -0.0494,0.134056 -0.0423,0.05644 -0.11289,0.05644 h -0.91017 z"
           style="font-style:normal;font-variant:normal;font-weight:normal;font-stretch:normal;font-size:7.05555534px;font-family:Dosis;-inkscape-font-specification:Dosis;fill:#000000;fill-opacity:1;stroke-width:0.26458332"
           id="path991" />
        <path
           d="m 161.7528,47.877745 q 0.0988,0 0.16228,0.04939 0.0705,0.04233 0.0705,0.119945 v 2.9845 q 0,0.07055 -0.0705,0.127 -0.0635,0.05644 -0.16228,0.05644 -0.0988,0 -0.16228,-0.05644 -0.0635,-0.05645 -0.0635,-0.127 v -2.9845 q 0,-0.07761 0.0635,-0.119945 0.0635,-0.04939 0.16228,-0.04939 z m 0,-1.573388 q 0.127,0 0.21166,0.08467 0.0917,0.08467 0.0917,0.204611 0,0.119945 -0.0917,0.211667 -0.0847,0.08467 -0.21166,0.08467 -0.13406,0 -0.22578,-0.08467 -0.0917,-0.09172 -0.0917,-0.211667 0,-0.119944 0.0917,-0.204611 0.0917,-0.08467 0.22578,-0.08467 z"
           style="font-style:normal;font-variant:normal;font-weight:normal;font-stretch:normal;font-size:7.05555534px;font-family:Dosis;-inkscape-font-specification:Dosis;fill:#000000;fill-opacity:1;stroke-width:0.26458332"
           id="path993" />
        <path
           d="m 164.07408,47.835412 q 0.26811,0 0.508,0.105833 0.24694,0.09878 0.43039,0.282223 0.1905,0.176388 0.29633,0.416277 0.11289,0.239889 0.11289,0.515056 v 0.769055 q 0,0.261056 -0.11289,0.508 -0.10583,0.239889 -0.29633,0.423334 -0.18345,0.183444 -0.43039,0.296333 -0.23989,0.112889 -0.508,0.112889 -0.26811,0 -0.508,-0.105833 -0.23989,-0.112889 -0.42334,-0.296334 -0.18344,-0.1905 -0.29633,-0.430389 -0.10583,-0.239888 -0.10583,-0.508 v -0.769055 q 0,-0.261056 0.10583,-0.500945 0.10583,-0.239888 0.28222,-0.423333 0.18345,-0.183444 0.42334,-0.289278 0.24694,-0.105833 0.52211,-0.105833 z m 0.889,1.319389 q 0,-0.169333 -0.0706,-0.331611 -0.0705,-0.162278 -0.1905,-0.282222 -0.11994,-0.127 -0.28222,-0.204612 -0.16228,-0.07761 -0.34572,-0.07761 -0.18345,0 -0.34572,0.07761 -0.16228,0.07761 -0.28223,0.204612 -0.11289,0.119944 -0.18344,0.282222 -0.0635,0.162278 -0.0635,0.331611 v 0.769055 q 0,0.176389 0.0635,0.345723 0.0705,0.162277 0.1905,0.289277 0.11994,0.127 0.27517,0.204611 0.16227,0.07761 0.34572,0.07761 0.18344,0 0.34572,-0.07761 0.16228,-0.07761 0.28222,-0.204611 0.11995,-0.127 0.1905,-0.289277 0.0706,-0.169334 0.0706,-0.345723 z"
           style="font-style:normal;font-variant:normal;font-weight:normal;font-stretch:normal;font-size:7.05555534px;font-family:Dosis;-inkscape-font-specification:Dosis;fill:#000000;fill-opacity:1;stroke-width:0.26458332"
           id="path995" />
        <path
           d="m 166.63523,51.031579 q 0,0.07055 -0.0705,0.127 -0.0635,0.05644 -0.16228,0.05644 -0.0988,0 -0.16228,-0.05644 -0.0635,-0.05645 -0.0635,-0.127 v -2.9845 q 0,-0.07761 0.0635,-0.119945 0.0635,-0.04939 0.16228,-0.04939 0.0847,0 0.14816,0.04939 0.0635,0.04233 0.0635,0.119945 v 0.324555 q 0.11289,-0.204611 0.34573,-0.366889 0.23989,-0.169333 0.59972,-0.169333 0.254,0 0.47978,0.105833 0.23283,0.09878 0.40216,0.282223 0.16934,0.176388 0.26811,0.416277 0.10584,0.239889 0.10584,0.515056 v 1.876778 q 0,0.09172 -0.0776,0.141111 -0.0706,0.04233 -0.15523,0.04233 -0.0776,0 -0.15522,-0.04233 -0.0705,-0.04939 -0.0705,-0.141111 v -1.876778 q 0,-0.169333 -0.0706,-0.331611 -0.0705,-0.162278 -0.1905,-0.282222 -0.11994,-0.127 -0.28222,-0.204612 -0.15522,-0.07761 -0.33867,-0.07761 -0.15522,0 -0.31044,0.0635 -0.14817,0.05644 -0.26811,0.176389 -0.11289,0.112889 -0.1905,0.282222 -0.0706,0.162278 -0.0706,0.373945 z"
           style="font-style:normal;font-variant:normal;font-weight:normal;font-stretch:normal;font-size:7.05555534px;font-family:Dosis;-inkscape-font-specification:Dosis;fill:#000000;fill-opacity:1;stroke-width:0.26458332"
           id="path997" />
      </g>
      <g
         style="fill:#000000;fill-opacity:1"
         id="g5153">
        <g
           style="fill:#000000;fill-opacity:1"
           transform="matrix(-0.47272222,0,0,0.47272222,109.03316,29.945411)"
           id="g5149">
          <g
             inkscape:label="MAIN"
             id="g5137"
             transform="translate(0,467.63782)"
             style="display:inline;fill:#000000;fill-opacity:1" />
          <g
             id="g5147"
             inkscape:label="TR"
             style="display:inline;fill:#000000;fill-opacity:1"
             transform="translate(0,1459)">
            <g
               aria-label="j"
               style="font-style:normal;font-weight:normal;font-size:61.70612335px;line-height:1.25;font-family:sans-serif;letter-spacing:0px;word-spacing:0px;display:inline;fill:#000000;fill-opacity:1;stroke:none;stroke-width:1.54265296"
               id="g5145">
              <g
                 style="display:inline;isolation:isolate;fill:#000000;fill-opacity:1"
                 id="g5143"
                 transform="matrix(0.26504016,0,0,0.26504016,-21.226179,-1473.3367)">
                <g
                   style="fill:#000000;fill-opacity:1"
                   id="g5141"
                   clip-path="url(#_clipPath_5GnptCOllSOJ3bO73qvNTUgcvzTIUkS6-9)">
                  <path
                     id="path5139"
                     d="m 242.483,219.074 -11.874,-25.79 -13.476,-29.182 -35.276,-76.521 c 0,-0.032 -0.032,-0.063 -0.032,-0.095 -1.382,-2.984 -3.141,-5.748 -5.246,-8.23 2.859,-1.005 5.906,-1.539 9.078,-1.539 2.074,0 3.77,-1.696 3.77,-3.77 0,-2.073 -1.696,-3.769 -3.77,-3.769 -5.371,0 -10.429,1.194 -15.078,3.361 C 164.36,68.827 156.632,66 148.214,66 c -8.388,0 -16.147,2.796 -22.366,7.539 -4.618,-2.199 -9.707,-3.361 -15.078,-3.361 -2.074,0 -3.77,1.696 -3.77,3.769 0,2.074 1.696,3.77 3.77,3.77 3.172,0 6.219,0.534 9.078,1.539 -5.619,6.662 -8.701,15.096 -8.702,23.811 -0.012,5.348 1.146,10.634 3.393,15.487 l 20.952,45.328 c 3.958,8.576 9.456,16.115 16.209,22.335 l -6.816,23.905 c -0.911,-0.157 -1.822,-0.22 -2.733,-0.22 h -0.723 c -4.617,-0.005 -9.046,1.826 -12.313,5.089 -0.954,0.954 -1.327,2.344 -0.978,3.647 0.349,1.303 1.367,2.321 2.67,2.67 1.303,0.349 2.694,-0.023 3.648,-0.977 1.853,-1.854 4.335,-2.89 6.973,-2.89 h 0.691 c 2.639,0 5.121,1.036 6.974,2.89 1.476,1.471 3.864,1.471 5.34,0 1.477,-1.477 1.477,-3.864 0,-5.34 -0.785,-0.786 -1.633,-1.477 -2.513,-2.105 l 6.157,-21.518 c 5.152,3.707 10.806,6.754 16.932,9.016 1.413,0.502 2.795,0.973 4.209,1.413 l -2.387,8.293 c -0.911,-0.157 -1.822,-0.22 -2.733,-0.22 h -0.691 c -4.618,-0.004 -9.047,1.827 -12.314,5.089 -0.954,0.954 -1.327,2.344 -0.978,3.648 0.35,1.303 1.367,2.321 2.67,2.67 1.304,0.349 2.694,-0.024 3.648,-0.978 1.853,-1.853 4.335,-2.89 6.974,-2.89 h 0.691 c 2.638,0 5.12,1.037 6.973,2.89 1.49,1.378 3.803,1.333 5.238,-0.102 1.435,-1.435 1.48,-3.748 0.102,-5.238 -0.785,-0.785 -1.633,-1.476 -2.513,-2.104 l 2.67,-9.33 c 4.241,0.785 8.545,1.194 12.817,1.194 8.795,0 17.56,-1.665 25.915,-4.995 l 7.885,17.12 h -14.607 l -3.801,-8.199 c -0.879,-1.885 -3.11,-2.701 -4.995,-1.822 -1.884,0.88 -2.701,3.11 -1.821,4.995 l 4.806,10.366 c 0.628,1.319 1.947,2.199 3.424,2.199 h 22.9 c 1.287,0 2.481,-0.66 3.172,-1.728 0.66,-1.036 0.754,-2.418 0.22,-3.581 z m -33.831,-55.38 c -21.424,7.759 -45.643,-2.074 -55.381,-23.12 l -0.346,-0.785 c 15.55,-1.979 28.115,-13.634 31.445,-28.743 z M 148.214,73.57 c 5.622,0 10.868,1.571 15.36,4.335 -6.722,5.246 -12.031,12.88 -15.36,22.146 -3.299,-9.266 -8.639,-16.931 -15.361,-22.146 4.492,-2.732 9.738,-4.335 15.361,-4.335 z m 12.47,24.974 c 2.45,0.091 4.389,2.103 4.389,4.554 0,2.452 -1.939,4.464 -4.389,4.555 -2.513,0 -4.554,-2.042 -4.554,-4.555 0.031,-2.544 2.073,-4.554 4.554,-4.554 z m -20.387,4.523 c -0.091,2.45 -2.103,4.389 -4.554,4.389 -2.452,0 -4.464,-1.939 -4.555,-4.389 0,-2.513 2.042,-4.555 4.555,-4.555 2.513,0.032 4.554,2.042 4.554,4.555 z M 126.821,82.806 c 3.11,2.136 5.875,4.9 8.262,8.199 -6.403,0.36 -11.416,5.649 -11.434,12.062 0,6.66 5.434,12.094 12.094,12.094 2.984,0 5.748,-1.1 7.853,-2.921 0.565,3.361 0.848,6.91 0.848,10.554 0,2.073 1.696,3.77 3.77,3.77 2.073,0 3.769,-1.697 3.769,-3.77 0,-3.675 0.283,-7.193 0.848,-10.554 2.105,1.821 4.869,2.921 7.853,2.921 6.66,0 12.094,-5.434 12.094,-12.094 -0.007,-6.418 -5.026,-11.712 -11.434,-12.062 2.387,-3.299 5.183,-6.063 8.262,-8.199 5.19,5.468 8.08,12.722 8.073,20.261 0,16.272 -13.225,29.497 -29.497,29.497 -16.272,0 -29.496,-13.225 -29.496,-29.497 0.062,-7.822 3.109,-14.952 8.135,-20.261 z m 61.789,113.494 2.733,-9.581 c 0.566,-1.994 -0.585,-4.071 -2.576,-4.649 -1.994,-0.566 -4.071,0.585 -4.649,2.576 l -2.827,9.895 c -1.225,-0.377 -2.45,-0.785 -3.675,-1.225 -15.738,-5.812 -28.24,-17.371 -35.277,-32.607 l -11.528,-24.973 c 4.241,2.262 8.952,3.738 13.979,4.21 l 1.57,3.675 c 0,0.031 0.032,0.063 0.032,0.094 8.764,18.973 27.58,30.188 47.244,30.188 6.063,0 12.22,-1.068 18.188,-3.33 l 10.304,22.334 c -10.647,4.196 -22.246,5.37 -33.518,3.393 z"
                     inkscape:connector-curvature="0"
                     style="fill:#000000;fill-opacity:1" />
                </g>
              </g>
            </g>
          </g>
        </g>
        <rect
           style="fill:#000000;fill-opacity:1;stroke:none;stroke-width:0.43668416;stroke-miterlimit:4;stroke-dasharray:none;stroke-opacity:1"
           id="rect5151"
           width="0.79374999"
           height="19.84375"
           x="113.07794"
           y="31.4373" />
      </g>
    </g>
  </g>
</svg>
